<svg width="230" height="49" viewBox="0 0 230 49" fill="none" xmlns="http://www.w3.org/2000/svg">
<g clip-path="url(#clip0)">
<path d="M96.9 3.05176e-05H85.6943V7.86181H99.1241L96.9 3.05176e-05ZM106.887 3.05176e-05L104.663 7.86181H118.092V3.05176e-05H106.887ZM101.894 17.6545L99.6104 9.58392H85.6943V18.7954H94.0049L93.9917 12.8169L95.9132 18.7954H107.784L109.718 12.8963L109.731 18.7954H118.092V9.58392H104.176L101.894 17.6545H101.894ZM85.6943 20.5159V28.3089H94.0295L94.0098 20.5159H85.6943ZM98.6689 27.3663L104.96 27.4041L107.219 20.5159H96.466L98.6689 27.3663ZM109.757 28.3089H118.092V20.5159H109.736L109.757 28.3089Z" fill="url(#paint0_linear)"/>
<path d="M157.96 6.60522H171.762V3.05176e-05H148.683V7.86181H157.96V6.60522ZM157.96 17.2607H170.111L170.033 10.6555H157.96V9.58395H148.683V18.7954H157.96V17.2607V17.2607ZM130.399 3.05176e-05H121.12V7.86181H130.399V3.05176e-05ZM48.8138 9.59442C48.8138 10.7729 48.4604 11.6386 47.7524 12.1871C47.1462 12.6606 46.2575 12.8963 45.0792 12.8963H41.2256V9.58395H31.9468V18.7954H51.2658C52.7075 18.3493 53.9122 17.6962 54.8687 16.8281C56.7263 15.1579 57.6534 12.7374 57.6587 9.58392H48.8123C48.8123 9.58798 48.8138 9.59033 48.8138 9.59439V9.59442ZM191.617 9.58395C191.617 9.58801 191.618 9.59035 191.618 9.59442C191.618 10.7729 191.266 11.6386 190.557 12.1871C189.952 12.6606 189.063 12.8963 187.884 12.8963H184.029V9.58395H174.749V18.7954H194.07C195.513 18.3493 196.715 17.6962 197.672 16.8281C199.531 15.1579 200.456 12.7374 200.464 9.58392H191.617V9.58395ZM184.029 6.60522H186.664C188.001 6.60522 189.079 6.77853 189.888 7.1164C190.346 7.31316 190.708 7.56333 190.984 7.86181H200.336C200.018 5.67852 199.072 3.91856 197.476 2.59541C195.377 0.864234 192.35 3.05176e-05 188.395 3.05176e-05H174.749V7.86181H184.029V6.60522ZM140.642 9.58395H121.12V18.7954H130.399V15.411H134.252C135.433 15.411 136.322 15.6483 136.927 16.1202C137.634 16.6703 137.988 17.5357 137.988 18.7145C137.988 18.7432 137.983 18.7678 137.983 18.7954H146.832C146.832 18.7806 146.834 18.7678 146.834 18.7534C146.834 15.5859 145.906 13.1559 144.042 11.4797C143.132 10.6529 141.993 10.0273 140.642 9.58395H140.642ZM18.9706 18.7954H28.2495V9.58395H18.9706V18.7954ZM68.7872 6.60522H82.5884V3.05176e-05H59.5097V7.86181H68.7872V6.60522ZM68.7872 17.2607H80.9368L80.8569 10.6555H68.7872V9.58395H59.5097V18.7954H68.7872V17.2607V17.2607ZM136.257 21.1925C135.448 21.5301 134.37 21.7022 133.035 21.7022H130.399V20.5159H121.12V28.3089H134.763C138.719 28.3089 141.747 27.4431 143.845 25.7146C145.424 24.4047 146.368 22.6667 146.696 20.5159H137.29C137.021 20.7869 136.68 21.0113 136.257 21.1925ZM41.2256 6.60525H43.8588C45.1964 6.60525 46.2729 6.77855 47.0838 7.11642C47.5412 7.31318 47.9053 7.56336 48.1815 7.86184H57.5308C57.2141 5.67855 56.2661 3.91859 54.6732 2.59544C52.572 0.864261 49.5448 5.74415e-05 45.5899 5.74415e-05H31.9468V7.86184H41.2256V6.60525H41.2256ZM174.749 28.3089H184.029V20.5159H174.749V28.3089ZM157.96 20.5159H148.683V28.3089H172.312V21.7022H157.96V20.5159ZM1.41895 18.7955H10.6978V9.58397H1.41895V18.7955ZM1.41895 28.3089H10.6978V20.5159H1.41895V28.3089ZM10.6978 5.74415e-05H1.41895V6.60525V7.86184H10.6978V6.60525H18.9706V7.86184H28.2495V6.60525V5.74415e-05H18.9706H10.6978ZM18.9706 28.3089H28.2495V20.5159H18.9706V28.3089ZM31.9467 28.3089H41.2256V20.5159H31.9467V28.3089ZM68.7871 20.5159H59.5097V28.3089H83.1383V21.7022H68.7871V20.5159Z" fill="black"/>
<path d="M2.69239e-05 35.3967H1.76793L6.11655 43.5591L9.89648 35.3967H11.6272L6.65427 45.7257C6.03308 47.0176 5.52301 47.8645 5.12435 48.2633C4.72569 48.6619 4.15703 48.8598 3.41519 48.8598C2.96403 48.8598 2.41066 48.7546 1.75245 48.5444V47.0423C2.22222 47.3144 2.71977 47.4504 3.24517 47.4504C3.6718 47.4504 4.0395 47.3113 4.35174 47.0362C4.66069 46.7612 5.00386 46.1338 5.37784 45.1539L0 35.3967L2.69239e-05 35.3967ZM22.5837 44.0165L24.3455 44.4616C23.9776 45.9049 23.3163 47.0021 22.3611 47.7594C21.4062 48.5166 20.2379 48.8968 18.8564 48.8968C17.4284 48.8968 16.2663 48.6063 15.3701 48.0221C14.4737 47.4411 13.7938 46.5974 13.3271 45.4939C12.8604 44.3875 12.6255 43.2038 12.6255 41.9365C12.6255 40.5551 12.8882 39.3496 13.4167 38.3204C13.9452 37.2912 14.6963 36.5093 15.6699 35.9746C16.6434 35.44 17.7159 35.1741 18.8842 35.1741C20.2132 35.1741 21.329 35.5111 22.2315 36.1879C23.1371 36.8647 23.7675 37.8136 24.123 39.0375L22.3984 39.4454C22.0924 38.4812 21.6442 37.7765 21.06 37.3376C20.4759 36.8956 19.7403 36.6762 18.8533 36.6762C17.8364 36.6762 16.9835 36.9203 16.3004 37.4087C15.6174 37.897 15.1353 38.5552 14.86 39.3774C14.5819 40.2027 14.4428 41.0526 14.4428 41.9273C14.4428 43.0554 14.6067 44.0414 14.9343 44.882C15.2618 45.7257 15.7719 46.3531 16.4642 46.7704C17.1565 47.1876 17.9044 47.3947 18.7111 47.3947C19.6939 47.3947 20.5223 47.1104 21.2022 46.5447C21.8822 45.976 22.3427 45.1354 22.5837 44.0165H22.5837ZM26.8859 35.3967H35.1752V48.6743H33.4135V36.9544H28.6477V43.794C28.6477 45.1849 28.5827 46.2017 28.453 46.8476C28.3231 47.4968 28.0481 47.9975 27.6308 48.3591C27.2136 48.7176 26.6819 48.8968 26.0422 48.8968C25.6527 48.8968 25.1861 48.8165 24.6421 48.6557L24.9573 47.0979C25.2449 47.2464 25.4921 47.3205 25.696 47.3205C26.0917 47.3205 26.3914 47.1722 26.5893 46.8724C26.7871 46.5725 26.8859 45.8679 26.8859 44.7552V35.3967V35.3967ZM36.7298 35.3967H38.4977L42.8463 43.5591L46.6263 35.3967H48.357L43.3841 45.7257C42.7629 47.0176 42.2528 47.8645 41.8541 48.2633C41.4555 48.6619 40.8868 48.8598 40.145 48.8598C39.6938 48.8598 39.1404 48.7546 38.4822 48.5444V47.0423C38.952 47.3144 39.4496 47.4504 39.975 47.4504C40.4016 47.4504 40.7693 47.3113 41.0815 47.0362C41.3905 46.7612 41.7337 46.1338 42.1076 45.1539L36.7298 35.3967L36.7298 35.3967ZM49.8932 35.3967H58.479V36.9544H51.6548V48.6743H49.8932V35.3967ZM59.9348 35.3967H61.5296V45.9112L68.598 35.3967H70.3381V48.6743H68.7431V38.1876L61.6933 48.6743H59.9348V35.3967ZM78.3428 48.6743V35.3967H80.9761L84.1162 44.7954C84.4067 45.6701 84.6169 46.3253 84.7499 46.7612C84.9013 46.2789 85.1393 45.5682 85.4606 44.6317L88.6564 35.3967H91.0085V48.6743H89.3211V37.5664L85.4454 48.6743H83.8628L80.0303 37.3623V48.6743H78.3429L78.3428 48.6743ZM92.3715 48.6743L97.4649 35.3967H99.3966L104.802 48.6743H102.803L101.267 44.6502H95.6754L94.2352 48.6743H92.3715H92.3715ZM96.1916 43.2222H100.716L99.3317 39.5412C98.9145 38.4224 98.5993 37.4984 98.3797 36.7689C98.1975 37.6344 97.9532 38.4843 97.6473 39.3249L96.1916 43.2222H96.1916ZM106.27 48.6743V35.3967H108.032V40.8672H114.893V35.3967H116.655V48.6743H114.893V42.4249H108.032V48.6743H106.27ZM119.625 35.3967H121.22V45.9112L128.288 35.3967H130.029V48.6743H128.434V38.1876L121.384 48.6743H119.625V35.3967ZM132.937 35.3967H143.359V48.6743H141.597V36.9544H134.699V48.6743H132.937V35.3967ZM144.904 35.3967H146.672L151.02 43.5591L154.8 35.3967H156.531L151.558 45.7257C150.937 47.0176 150.427 47.8645 150.028 48.2633C149.63 48.6619 149.061 48.8598 148.319 48.8598C147.868 48.8598 147.315 48.7546 146.656 48.5444V47.0423C147.126 47.3144 147.624 47.4504 148.149 47.4504C148.576 47.4504 148.943 47.3113 149.256 47.0362C149.565 46.7612 149.908 46.1338 150.282 45.1539L144.904 35.3967L144.904 35.3967ZM158.398 35.3967H166.687V48.6743H164.925V36.9544H160.16V43.794C160.16 45.1849 160.095 46.2017 159.965 46.8476C159.835 47.4968 159.56 47.9975 159.143 48.3591C158.726 48.7176 158.194 48.8968 157.554 48.8968C157.165 48.8968 156.698 48.8165 156.154 48.6557L156.469 47.0979C156.757 47.2464 157.004 47.3205 157.208 47.3205C157.604 47.3205 157.903 47.1722 158.101 46.8724C158.299 46.5725 158.398 45.8679 158.398 44.7552V35.3967V35.3967ZM180.082 48.6743V35.3967H174.197C173.014 35.3967 172.117 35.5172 171.502 35.7552C170.887 35.9932 170.396 36.4136 170.028 37.0161C169.66 37.6189 169.475 38.2865 169.475 39.0158C169.475 39.9584 169.781 40.7528 170.39 41.3988C170.999 42.0447 171.938 42.4527 173.212 42.6288C172.745 42.8514 172.393 43.0739 172.152 43.2903C171.638 43.7601 171.153 44.3503 170.699 45.0581L168.402 48.6742H170.597L172.352 45.9112C172.862 45.1108 173.286 44.5017 173.616 44.0784C173.95 43.6549 174.247 43.3613 174.51 43.1914C174.769 43.0245 175.038 42.907 175.31 42.839C175.508 42.7988 175.833 42.7773 176.287 42.7773H178.32V48.6742H180.082L180.082 48.6743ZM178.32 41.2566H174.55C173.746 41.2566 173.122 41.1732 172.671 41.0063C172.22 40.8425 171.876 40.5767 171.645 40.2088C171.41 39.8442 171.292 39.4485 171.292 39.019C171.292 38.3915 171.518 37.8724 171.972 37.4675C172.427 37.0626 173.144 36.8616 174.123 36.8616H178.32V41.2566H178.32ZM186.353 48.6743V36.9544H181.977V35.3967H192.491V36.9544H188.115V48.6743H186.353ZM192.933 42.2116C192.933 40.0111 193.527 38.2865 194.71 37.0408C195.894 35.7953 197.421 35.1741 199.294 35.1741C200.521 35.1741 201.624 35.4678 202.61 36.0519C203.593 36.636 204.344 37.4519 204.86 38.4996C205.376 39.5443 205.636 40.7312 205.636 42.057C205.636 43.4016 205.364 44.6069 204.82 45.6669C204.276 46.7302 203.507 47.5338 202.511 48.0777C201.513 48.6249 200.438 48.8968 199.285 48.8968C198.033 48.8968 196.917 48.5939 195.931 47.9912C194.949 47.3886 194.201 46.5664 193.694 45.5217C193.187 44.4802 192.933 43.3767 192.933 42.2115L192.933 42.2116ZM194.751 42.2425C194.751 43.8404 195.18 45.0983 196.039 46.0162C196.899 46.9341 197.977 47.3947 199.275 47.3947C200.598 47.3947 201.683 46.931 202.539 46.0038C203.392 45.0767 203.819 43.7601 203.819 42.0541C203.819 40.9753 203.636 40.0327 203.272 39.2291C202.907 38.4256 202.372 37.8013 201.671 37.3593C200.966 36.9172 200.178 36.6947 199.303 36.6947C198.061 36.6947 196.991 37.1213 196.095 37.9742C195.199 38.8273 194.751 40.2491 194.751 42.2425H194.751ZM207.895 48.6742V35.3967H212.908C213.789 35.3967 214.463 35.44 214.93 35.5234C215.582 35.6315 216.129 35.8386 216.571 36.1415C217.013 36.4474 217.368 36.8741 217.637 37.421C217.906 37.9681 218.039 38.5707 218.039 39.2291C218.039 40.3541 217.681 41.3091 216.96 42.088C216.243 42.8699 214.942 43.2594 213.063 43.2594H209.657V48.6742H207.895H207.895ZM209.657 41.7016H213.088C214.225 41.7016 215.029 41.4915 215.508 41.0681C215.984 40.6446 216.222 40.0513 216.222 39.2816C216.222 38.7284 216.083 38.2524 215.801 37.8569C215.52 37.4612 215.149 37.1985 214.692 37.0718C214.395 36.9946 213.848 36.9544 213.054 36.9544H209.657V41.7016H209.657ZM217.569 48.6742L222.663 35.3967H224.594L230 48.6742H228L226.464 44.6502H220.873L219.433 48.6742H217.569H217.569ZM221.389 43.2222H225.914L224.53 39.5412C224.112 38.4224 223.797 37.4984 223.578 36.7689C223.395 37.6343 223.151 38.4843 222.845 39.3249L221.389 43.2222H221.389Z" fill="black"/>
</g>
<defs>
<linearGradient id="paint0_linear" x1="85.6943" y1="23.6815" x2="118.787" y2="22.3183" gradientUnits="userSpaceOnUse">
<stop stop-color="#DB6D4A"/>
<stop offset="1" stop-color="#E8702D"/>
</linearGradient>
<clipPath id="clip0">
<rect width="230" height="48.8968" fill="white"/>
</clipPath>
</defs>
</svg>
