<svg width="30" height="30" viewBox="0 0 30 30" fill="none" xmlns="http://www.w3.org/2000/svg">
<path d="M20.0822 10.6394L13.401 16.8498C13.1662 17.068 13.0145 17.361 12.9716 17.6785L12.7443 19.3649C12.714 19.5899 12.3974 19.6126 12.3353 19.3942L11.46 16.319C11.3601 15.9681 11.5058 15.5933 11.8164 15.402L19.912 10.4156C20.0572 10.3262 20.2072 10.5232 20.0822 10.6394ZM30 0V30H0V0H30ZM23.3239 7.20753L6.3241 13.7655C5.90501 13.9272 5.90822 14.5214 6.32904 14.6785L10.4711 16.2247L12.0746 21.3809C12.1773 21.7111 12.5813 21.8329 12.8493 21.6143L15.1583 19.732C15.4004 19.5347 15.7448 19.525 15.9975 19.7085L20.1623 22.7323C20.449 22.9404 20.8551 22.7834 20.9272 22.4365L23.9777 7.76224C24.0564 7.38382 23.6847 7.06833 23.3239 7.20753Z" fill="url(#paint0_linear)"/>
<defs>
<linearGradient id="paint0_linear" x1="3.15675e-07" y1="25.0962" x2="30.6559" y2="23.9928" gradientUnits="userSpaceOnUse">
<stop stop-color="#DB6D4A"/>
<stop offset="1" stop-color="#E8702D"/>
</linearGradient>
</defs>
</svg>
