<svg width="12" height="14" viewBox="0 0 12 14" fill="none" xmlns="http://www.w3.org/2000/svg">
<path d="M11.4545 6H10.2955V2.18182C10.2955 0.976705 9.31875 0 8.11364 0H3.88636C2.68125 0 1.70455 0.976705 1.70455 2.18182V6H0.545455C0.24375 6 0 6.24375 0 6.54545V13.0909C0 13.3926 0.24375 13.6364 0.545455 13.6364H11.4545C11.7563 13.6364 12 13.3926 12 13.0909V6.54545C12 6.24375 11.7563 6 11.4545 6ZM2.93182 2.18182C2.93182 1.65511 3.35966 1.22727 3.88636 1.22727H8.11364C8.64034 1.22727 9.06818 1.65511 9.06818 2.18182V6H2.93182V2.18182ZM10.7727 12.4091H1.22727V7.22727H10.7727V12.4091ZM5.52273 10.0398V10.9432C5.52273 11.0182 5.58409 11.0795 5.65909 11.0795H6.34091C6.41591 11.0795 6.47727 11.0182 6.47727 10.9432V10.0398C6.61798 9.93875 6.723 9.79569 6.77722 9.63118C6.83145 9.46668 6.83207 9.28921 6.77901 9.12432C6.72595 8.95943 6.62194 8.81564 6.48195 8.71363C6.34196 8.61162 6.17321 8.55666 6 8.55666C5.82679 8.55666 5.65804 8.61162 5.51805 8.71363C5.37806 8.81564 5.27405 8.95943 5.22099 9.12432C5.16793 9.28921 5.16856 9.46668 5.22278 9.63118C5.277 9.79569 5.38202 9.93875 5.52273 10.0398Z" fill="url(#paint0_linear)"/>
<defs>
<linearGradient id="paint0_linear" x1="1.2627e-07" y1="11.4073" x2="12.2659" y2="11.0188" gradientUnits="userSpaceOnUse">
<stop stop-color="#DB6D4A"/>
<stop offset="1" stop-color="#E8702D"/>
</linearGradient>
</defs>
</svg>
