<svg width="30" height="30" viewBox="0 0 30 30" fill="none" xmlns="http://www.w3.org/2000/svg">
<path d="M15.0133 6.27484C10.2159 6.27484 6.31299 10.1778 6.31299 14.9752C6.31299 16.6468 6.78807 18.27 7.68676 19.6695L7.90274 20.0058L7.05652 23.0114L10.1661 22.2109L10.4868 22.4067C11.8465 23.2368 13.4117 23.6755 15.0133 23.6755C19.8107 23.6755 23.7136 19.7725 23.7136 14.9752C23.7136 10.1778 19.8107 6.27484 15.0133 6.27484ZM20.3484 17.6492L20.2399 18.1562C20.1174 18.7282 19.7777 19.2343 19.2849 19.5495C18.6626 19.9476 17.856 20.143 16.8308 19.8531C13.6491 18.9534 11.8497 16.8469 10.8843 15.5304C9.9188 14.2138 9.54582 12.8972 9.78714 11.8221C9.94901 11.101 10.476 10.5477 10.8056 10.2614C10.9671 10.1212 11.1766 10.0498 11.3901 10.0615L12.0699 10.0985C12.2038 10.1059 12.3219 10.1885 12.3747 10.3118L13.365 12.6291C13.418 12.7529 13.3957 12.896 13.3076 12.9978L12.4456 13.9951C12.3756 14.076 12.3635 14.1912 12.4127 14.286C13.5481 16.4731 15.6174 17.3397 16.2351 17.5568C16.3404 17.5938 16.457 17.5589 16.5252 17.4705L17.4272 16.3011C17.5276 16.171 17.7044 16.1276 17.8536 16.1964L20.1513 17.2555C20.3011 17.3245 20.3829 17.488 20.3484 17.6492Z" fill="url(#paint0_linear)"/>
<path d="M0 0V30H30V0H0ZM15.0135 25.4528C13.2133 25.4528 11.4506 24.992 9.89116 24.1171L4.50884 25.5025L5.97833 20.2834C5.03336 18.6781 4.53583 16.8515 4.53583 14.9752C4.53583 9.19773 9.23611 4.49746 15.0135 4.49746C20.7909 4.49746 25.4912 9.19773 25.4912 14.9752C25.4912 20.7526 20.7909 25.4528 15.0135 25.4528Z" fill="url(#paint1_linear)"/>
<defs>
<linearGradient id="paint0_linear" x1="6.31299" y1="20.8312" x2="24.094" y2="20.1912" gradientUnits="userSpaceOnUse">
<stop stop-color="#DB6D4A"/>
<stop offset="1" stop-color="#E8702D"/>
</linearGradient>
<linearGradient id="paint1_linear" x1="3.15675e-07" y1="25.0962" x2="30.6559" y2="23.9928" gradientUnits="userSpaceOnUse">
<stop stop-color="#DB6D4A"/>
<stop offset="1" stop-color="#E8702D"/>
</linearGradient>
</defs>
</svg>
